<svg xmlns="http://www.w3.org/2000/svg" width="24" height="24" viewBox="0 0 24 24">
    <g fill="none" fill-rule="evenodd">
        <path d="M0 0h24v24H0z"/>
        <path stroke="#00C232" stroke-linecap="round" stroke-linejoin="round" stroke-width="2" d="M14.972 22.159l.012.006a5.41 5.41 0 0 0 6.731-.738l.757-.756a1.804 1.804 0 0 0 0-2.551l-3.189-3.186a1.805 1.805 0 0 0-2.55 0 1.802 1.802 0 0 1-2.549.002l-.002-.002L9.08 9.83a1.804 1.804 0 0 1 0-2.55 1.802 1.802 0 0 0 .002-2.548L9.08 4.73 5.893 1.54a1.805 1.805 0 0 0-2.551 0l-.757.756a5.41 5.41 0 0 0-.74 6.73l.009.012a48.82 48.82 0 0 0 13.118 13.12z"/>
    </g>
</svg>
