<svg xmlns="http://www.w3.org/2000/svg" width="60" height="61" viewBox="0 0 60 61">
    <g fill="none" fill-rule="evenodd">
        <path d="M0 1h60v60H0z"/>
        <path stroke="#00C232" stroke-linecap="round" stroke-linejoin="round" stroke-width="2" d="M11.534 27.717h-.028C6.24 28.782 2.497 33.033 2.5 37.94v2.07c0 1.926 1.717 3.489 3.833 3.489h9.584c2.116 0 3.833-1.563 3.833-3.489s1.717-3.489 3.833-3.489h15.334c2.116 0 3.833 1.563 3.833 3.49 0 1.925 1.717 3.488 3.833 3.488h9.584c2.116 0 3.833-1.563 3.833-3.489v-2.07c0-4.905-3.744-9.155-9.006-10.218h-.028a113.862 113.862 0 0 0-39.432-.006zM31.25 16V3.5m-13.75 15l-5-10m32.5 10l5-10"/>
    </g>
</svg>
