<svg xmlns="http://www.w3.org/2000/svg" width="28" height="28" viewBox="0 0 28 28">
    <g fill="none" fill-rule="evenodd">
        <path d="M0 0h28v28H0z"/>
        <path stroke="#F6F9FD" stroke-linecap="round" stroke-linejoin="round" stroke-width="2" d="M23.042 15.167a4.375 4.375 0 0 1 4.375 4.375h-8.75a4.375 4.375 0 0 1 4.375-4.375zm-8.75 0a4.375 4.375 0 0 1 4.375 4.375h-8.75a4.375 4.375 0 0 1 4.375-4.375zm-8.75 0a4.375 4.375 0 0 1 4.375 4.375h-8.75a4.375 4.375 0 0 1 4.375-4.375zm17.5-7a2.624 2.624 0 1 1 0 5.249 2.624 2.624 0 0 1 0-5.25zm-8.75 0a2.624 2.624 0 1 1 0 5.249 2.624 2.624 0 0 1 0-5.25zm-8.75 0a2.624 2.624 0 1 1 0 5.249 2.624 2.624 0 0 1 0-5.25z"/>
    </g>
</svg>
