<svg xmlns="http://www.w3.org/2000/svg" width="24" height="24" viewBox="0 0 24 24">
    <g fill="none" fill-rule="evenodd">
        <path d="M0 0h24v24H0z"/>
        <path stroke="#858585" stroke-linecap="round" stroke-linejoin="round" d="M12 .75C18.213.75 23.25 5.787 23.25 12S18.213 23.25 12 23.25.75 18.213.75 12 5.787.75 12 .75zm-3.75 9h7.5a1.5 1.5 0 0 1 1.5 1.5v6a1.5 1.5 0 0 1-1.5 1.5h-7.5a1.5 1.5 0 0 1-1.5-1.5v-6a1.5 1.5 0 0 1 1.5-1.5zm3.75 3v3M8.25 9.768V7.75a3.75 3.75 0 0 1 7.5 0v2.018h-7.5z"/>
    </g>
</svg>
