<?xml version="1.0" encoding="UTF-8"?>
<svg width="67px" height="66px" viewBox="0 0 67 66" version="1.1" xmlns="http://www.w3.org/2000/svg" xmlns:xlink="http://www.w3.org/1999/xlink">
    <!-- Generator: Sketch 61.2 (89653) - https://sketch.com -->
    <title>Messages Onboarding</title>
    <desc>Created with Sketch.</desc>
    <defs>
        <circle id="path-1" cx="25" cy="25" r="25"></circle>
        <filter x="-29.1%" y="-21.1%" width="158.2%" height="158.2%" filterUnits="objectBoundingBox" id="filter-2">
            <feMorphology radius="0.543478261" operator="dilate" in="SourceAlpha" result="shadowSpreadOuter1"></feMorphology>
            <feOffset dx="0" dy="4" in="shadowSpreadOuter1" result="shadowOffsetOuter1"></feOffset>
            <feGaussianBlur stdDeviation="4" in="shadowOffsetOuter1" result="shadowBlurOuter1"></feGaussianBlur>
            <feComposite in="shadowBlurOuter1" in2="SourceAlpha" operator="out" result="shadowBlurOuter1"></feComposite>
            <feColorMatrix values="0 0 0 0 0   0 0 0 0 0   0 0 0 0 0  0 0 0 0.12 0" type="matrix" in="shadowBlurOuter1"></feColorMatrix>
        </filter>
    </defs>
    <g id="Interface" stroke="none" stroke-width="1" fill="none" fill-rule="evenodd">
        <g id="Onboarding-" transform="translate(-21.000000, -338.000000)">
            <g id="Messages-Onboarding" transform="translate(30.000000, 342.000000)">
                <g id="Group">
                    <g id="Oval-Copy">
                        <use fill="black" fill-opacity="1" filter="url(#filter-2)" xlink:href="#path-1"></use>
                        <use stroke="#007AFF" stroke-width="1.08695652" fill="#F6F9FD" fill-rule="evenodd" xlink:href="#path-1"></use>
                    </g>
                    <g id="Icon/Message-check" transform="translate(13.000000, 15.000000)">
                        <rect id="Rectangle" x="0" y="0" width="24" height="24"></rect>
                        <path d="M17.25,11.25 C20.564,11.25 23.25,13.936 23.25,17.25 C23.25,20.564 20.564,23.25 17.25,23.25 C13.936,23.25 11.25,20.564 11.25,17.25 C11.25,13.936 13.936,11.25 17.25,11.25 Z M19.924,15.506 L17.019,19.379 C16.769,19.711 16.298,19.777 15.966,19.528 C15.939,19.507 15.912,19.485 15.888,19.46 L14.388,17.96 M8.25,15.75 L2.25,15.75 C1.422,15.75 0.75,15.078 0.75,14.25 L0.75,2.25 C0.75,1.422 1.422,0.75 2.25,0.75 L20.25,0.75 C21.078,0.75 21.75,1.422 21.75,2.25 L21.75,9 M21.411,1.3 L13.267,7.564 C12.078,8.479 10.422,8.479 9.233,7.564 L1.089,1.3" id="Combined-Shape" stroke="#007AFF" stroke-width="1" stroke-linecap="round" stroke-linejoin="round"></path>
                    </g>
                </g>
            </g>
        </g>
    </g>
</svg>