<svg xmlns="http://www.w3.org/2000/svg" width="20" height="20" viewBox="0 0 20 20">
    <g fill="none" fill-rule="evenodd">
        <path d="M0 0h20v20H0z"/>
        <path stroke="#00C232" stroke-linecap="round" stroke-linejoin="round" stroke-width="2" d="M12.477 18.466l.01.005a4.509 4.509 0 0 0 5.609-.615l.63-.63a1.504 1.504 0 0 0 0-2.126l-2.656-2.655a1.504 1.504 0 0 0-2.126 0 1.502 1.502 0 0 1-2.124.001l-.001-.001-4.252-4.252a1.504 1.504 0 0 1 0-2.126 1.501 1.501 0 0 0 .002-2.123l-.002-.002-2.656-2.659a1.504 1.504 0 0 0-2.126 0l-.63.63a4.509 4.509 0 0 0-.617 5.61l.007.009a40.684 40.684 0 0 0 10.932 10.934z"/>
    </g>
</svg>
