<svg xmlns="http://www.w3.org/2000/svg" width="30" height="30" viewBox="0 0 30 30">
    <g fill="none" fill-rule="evenodd">
        <path d="M0 0h30v30H0z"/>
        <path stroke="#F6F9FD" stroke-linecap="round" stroke-linejoin="round" stroke-width="2" d="M5.512 11.062l-.013.003a5.534 5.534 0 0 0-4.334 5.402v1.094c0 1.02.826 1.844 1.845 1.845l4.61-.002a1.846 1.846 0 0 0 1.845-1.845c-.001-1.017.823-1.843 1.84-1.844H18.69c1.018.001 1.843.826 1.844 1.845 0 1.018.824 1.843 1.841 1.844h.003l4.613.003a1.846 1.846 0 0 0 1.845-1.845v-1.095a5.533 5.533 0 0 0-4.333-5.402l-.014-.002a49.93 49.93 0 0 0-18.976-.001z"/>
    </g>
</svg>
