<svg xmlns="http://www.w3.org/2000/svg" width="30" height="30" viewBox="0 0 30 30">
    <g fill="none" fill-rule="evenodd">
        <path d="M0 0H30V30H0z"/>
        <path stroke="#F6F9FD" stroke-linecap="round" stroke-linejoin="round" stroke-width="2" d="M18.716 27.698l.014.009c2.674 1.702 6.172 1.318 8.414-.923l.946-.946c.88-.88.88-2.307 0-3.188l-3.986-3.983c-.88-.88-2.307-.88-3.188 0h0c-.88.88-2.306.881-3.186.003 0-.002 0-.002-.002-.003L11.35 12.29c-.88-.881-.88-2.307 0-3.188h0c.88-.879.882-2.305.003-3.185l-.003-.002-3.984-3.99c-.881-.88-2.308-.88-3.189 0l-.946.947C.99 5.11.606 8.609 2.307 11.283l.01.015c4.367 6.465 9.934 12.031 16.399 16.4z"/>
    </g>
</svg>
